<svg xmlns="http://www.w3.org/2000/svg" width="106.021" height="53.014" viewBox="0 0 106.021 53.014">
  <path id="Path_82" data-name="Path 82" d="M430.438,268.553a2.416,2.416,0,0,0,0-3.332c-.941-.994-23.425-24.337-51.755-24.337s-50.819,23.343-51.762,24.337l0,0a2.5,2.5,0,0,0-.622,2.216c.668,3.058,25.133,25.458,52.382,25.458C407.013,292.9,429.5,269.547,430.438,268.553Zm-51.765,19.462A21.128,21.128,0,1,1,399.8,266.888,21.15,21.15,0,0,1,378.674,288.015Zm-19.24-38.5a25.81,25.81,0,0,0,.131,34.891,83.73,83.73,0,0,1-27.6-17.352C335.718,263.528,346.033,254.636,359.434,249.514Zm38.457,34.768a25.81,25.81,0,0,0,.017-34.773c13.191,5.042,23.408,13.747,27.306,17.381C421.319,270.53,411.1,279.242,397.892,284.282ZM378.674,253.8a13.087,13.087,0,1,0,13.085,13.085A13.1,13.1,0,0,0,378.674,253.8Zm0,21.335a8.248,8.248,0,1,1,8.246-8.25A8.258,8.258,0,0,1,378.674,275.139Z" transform="translate(-325.736 -240.384)" fill="#0a4a79" stroke="#fff" stroke-width="1"/>
</svg>
