<svg xmlns="http://www.w3.org/2000/svg" width="232.33" height="27.036" viewBox="0 0 232.33 27.036">
  <g id="Group_5688" data-name="Group 5688" transform="translate(-32.512 -27.128)">
    <g id="Group_5674" data-name="Group 5674">
      <path id="Path_460" data-name="Path 460" d="M49.154,44.13l-1.658,4.5h-2.43L50.8,33.514a1.588,1.588,0,0,1,1.476-1,1.57,1.57,0,0,1,1.47,1l5.734,15.114H57.046l-1.649-4.5Zm3.121-8.542-2.351,6.451,4.706,0Zm12.831.79L65.1,48.628H62.761l.014-14.5a1.624,1.624,0,0,1,1.618-1.62,1.535,1.535,0,0,1,1.375.768c2.314,3.754,6.576,10.846,7.038,11.617l.009-12.24h2.331V47.148a1.623,1.623,0,0,1-1.622,1.619A1.525,1.525,0,0,1,72.145,48c-2.313-3.753-6.573-10.845-7.039-11.623m35.612-3.722h7.542v2.138H101.5v5.19h6.761v2.135H101.5v6.509H99.168V34.209a1.549,1.549,0,0,1,1.55-1.553m-62.747,1.8a2.345,2.345,0,0,0-2.556,2.526,2,2,0,0,0,1.028,1.48,5.5,5.5,0,0,0,.99.419c.455.163,1.012.348,1.581.551a9.517,9.517,0,0,1,2.814,1.334,4.09,4.09,0,0,1,1.356,3.056,5.048,5.048,0,0,1-5.28,5.027,5.123,5.123,0,0,1-5.392-4.915h2.251a3.006,3.006,0,0,0,3.13,2.885,2.763,2.763,0,0,0,2.982-2.652,2.282,2.282,0,0,0-1.283-2.09,7.134,7.134,0,0,0-.916-.377c-.383-.13-.818-.271-1.262-.416A13.477,13.477,0,0,1,35,40.328a3.743,3.743,0,0,1-1.871-3.25,4.638,4.638,0,0,1,4.949-4.648,4.78,4.78,0,0,1,4.772,4.343H40.567a2.557,2.557,0,0,0-2.6-2.315m49.178-1.947a8.128,8.128,0,1,1-8.139,8.166,8.073,8.073,0,0,1,8.139-8.166m-.091,2.176A5.958,5.958,0,1,0,92.91,40.7a5.819,5.819,0,0,0-5.852-6.014M112.5,32.656h2.327V48.628H112.5Z" fill="#fff" fill-rule="evenodd"/>
      <path id="Path_461" data-name="Path 461" d="M132.457,48.887a8.487,8.487,0,0,1-8.541-8.24,8.414,8.414,0,0,1,8.52-8.241,8.639,8.639,0,0,1,6.5,2.927,5.648,5.648,0,0,1,1.031,1.591h-1.85a6.659,6.659,0,0,0-5.658-3.077,6.8,6.8,0,1,0,.064,13.6,6.756,6.756,0,0,0,6.434-4.711h-8.887V41.293h10.8A8.353,8.353,0,0,1,132.457,48.887Zm11.644-.28V32.686h8.713v1.442h-7.121v5.723h6.885v1.442h-6.885v5.873h7.121v1.441Zm23.5,0L158.152,34.6h-.043V48.607h-1.592V32.686h2.151L167.554,45.9h.043V32.686h1.591V48.607Zm4.263,0V47.166l7.831-13.038H172.1V32.686h9.38v1.442l-7.809,13.038h8.046v1.441Zm17.988-5.314v5.314h-1.592V43.293l-5.529-10.607h1.764l4.539,8.929,4.669-8.929h1.742Zm22.916,5.314V34.429h-.043l-5.959,14.178h-1.356l-5.918-14.178h-.042V48.607h-1.593V32.686h2.454l5.787,13.554,5.81-13.554h2.451V48.607Zm5.511,0V32.686h8.714v1.442h-7.122v5.723h6.885v1.442h-6.885v5.873h7.122v1.441Z" fill="#fff"/>
    </g>
    <g id="Group_5675" data-name="Group 5675">
      <path id="Path_462" data-name="Path 462" d="M264.215,36.559c-4.361-6.4-9.24-.777-14.146-1.473-4.859-.689-5.033-7.363.963-7.928.138-.012.28-.021.43-.03a13.524,13.524,0,0,1,12.753,9.431" fill="#fff"/>
      <path id="Path_463" data-name="Path 463" d="M264.334,36.939A13.522,13.522,0,0,1,242.7,51.05a8.373,8.373,0,0,0,2.948.525c12.246.068,7.015-16.215,18.689-14.636" fill="#fff" fill-rule="evenodd"/>
      <path id="Path_464" data-name="Path 464" d="M246.389,49.934c-1.7,1.034-4.387.726-6.251-1.83a11.2,11.2,0,0,1-1.051-1.718,13.4,13.4,0,0,1-1.284-5.748,13.675,13.675,0,0,1,.094-1.614c2.951,3.975,6.346,3.853,8.506,5.145a3.4,3.4,0,0,1-.014,5.765" fill="#fff" fill-rule="evenodd"/>
    </g>
  </g>
</svg>
