<svg xmlns="http://www.w3.org/2000/svg" width="67.253" height="83.626" viewBox="0 0 67.253 83.626">
  <path id="Path_81" data-name="Path 81" d="M251.239,376.052a3.183,3.183,0,0,0-2.514-.775l-7.473.882a24.15,24.15,0,0,0,4.414-11.353,23.783,23.783,0,0,0-6.591-18.856,28.924,28.924,0,0,0-6.577-5.208,10.464,10.464,0,0,0-4.272-7.013l4.623-13.523a7.071,7.071,0,0,0-4.459-8.992l-10.15-3.371a7.186,7.186,0,0,0-9.034,4.481L195.43,352.618a7.014,7.014,0,0,0,.358,5.425,7.13,7.13,0,0,0,1,1.495l-1.212,3.643a4.226,4.226,0,0,0,2.672,5.332l8.343,2.772a4.217,4.217,0,0,0,5.331-2.673l1.1-3.326a7.167,7.167,0,0,0,6.045-4.784l2.671-7.814c.135.006.267.021.4.021a10.424,10.424,0,0,0,3.319-.548,15.429,15.429,0,0,1,3.774,2.906,11.227,11.227,0,0,1,3.059,8.673c-.565,7.472-7.547,13.709-17.377,15.529l-24.531,2.9a5.251,5.251,0,0,0-3.8,2.648l-1.192,2.339a2.619,2.619,0,0,0,2.424,3.953h61.084a3.4,3.4,0,0,0,3.394-3.395v-9.256A3.213,3.213,0,0,0,251.239,376.052Zm-29.092-26.643a7.171,7.171,0,1,1,7.171-7.171A7.178,7.178,0,0,1,222.147,349.409Zm-14.514,18.744-8.343-2.773a.922.922,0,0,1-.58-1.158l.9-2.718c.093.035.182.076.276.107l9.8,3.255-.9,2.706A.928.928,0,0,1,207.633,368.153Zm8.317-8.719a3.87,3.87,0,0,1-4.872,2.415l-10.149-3.371a3.771,3.771,0,0,1-2.377-4.793l13.777-40.294a3.877,3.877,0,0,1,3.662-2.612,3.824,3.824,0,0,1,1.209.2l10.15,3.371a3.771,3.771,0,0,1,2.376,4.792l-4.478,13.1a10.465,10.465,0,0,0-6.768,19.8Zm19.639,4.555a14.444,14.444,0,0,0-3.929-11.165,17.587,17.587,0,0,0-2.9-2.479,10.479,10.479,0,0,0,3.592-5.8,24.822,24.822,0,0,1,4.3,3.653,20.53,20.53,0,0,1,5.731,16.258,21.6,21.6,0,0,1-5.813,12.261l-9.543,1.128C232,374.37,235.175,369.471,235.589,363.989ZM249,387.712a.1.1,0,0,1-.094.1H188.77l.761-1.493a2.064,2.064,0,0,1,1.247-.87L249,378.567Z" transform="translate(-185.047 -307.481)" fill="#0a4a79"/>
</svg>
