<svg xmlns="http://www.w3.org/2000/svg" width="41.613" height="50.753" viewBox="0 0 41.613 50.753">
  <path id="Path_19" data-name="Path 19" d="M.607,15.134h0a.791.791,0,0,0,.287.082H.938c4.435.181,8.915.181,13.332.181h0a.9.9,0,0,0,.9-.906V1.811H20.8c2.168,0,4.345,0,6.523.054l6.532.091H39.5v.1a.9.9,0,0,0,1.792,0V1.032a.9.9,0,0,0-.9-.906H37.135C36.051.127,34.94,0,33.856,0L27.324.1C25.147.1,22.97.163,20.8.154H14.682A.889.889,0,0,0,13.643.3L7,7.064.464,13.775l-.081.082h0a.78.78,0,0,0-.116.181s0,0,0,.063a.812.812,0,0,0,.161.906.9.9,0,0,0,.179.127ZM8.223,8.3l5.152-5.18V13.485q-5.214,0-10.447.118ZM.938,46.08a.954.954,0,0,0,.95-.906V40.864c0-2.59-.1-6.059-.1-9.509s0-6.883-.045-9.464,0-4.311,0-4.311h0a.8.8,0,0,0-.366-.76.781.781,0,0,0-.836,0,.8.8,0,0,0-.366.76s0,1.721,0,4.311v9.464C.177,34.8.042,38.246,0,40.827s0,4.311,0,4.311a.911.911,0,0,0,.265.681A.891.891,0,0,0,.938,46.08Zm36.582,2.826H1.879v-.435a.937.937,0,0,0-.932-.942.937.937,0,0,0-.932.942v1.377a.9.9,0,0,0,.9.906H37.521a.951.951,0,0,0,0-1.9ZM41.1,4.429a.7.7,0,0,0-1.371,0s-.081.38-.143.906a18.585,18.585,0,0,0-.17,2.128c0,.761.412,41.171.493,41.733a6.234,6.234,0,0,0,.188.906.67.67,0,0,0,1.281,0,6.855,6.855,0,0,0,.2-.906c.072-.562-.215-40.981-.233-41.733s-.081-1.522-.134-2.092a7.385,7.385,0,0,0-.143-.942ZM12,25.141a1.877,1.877,0,0,0,.43-1.123c0-2.943-4.8-1.811-3.423.643C9.665,25.83,11.072,26.31,12,25.141Zm.6,7.091a1.933,1.933,0,0,0-.779-1.362,1.892,1.892,0,0,0-1.523-.322A1.679,1.679,0,0,0,9.01,31.6a1.708,1.708,0,0,0,.243,1.661,1.907,1.907,0,0,0,3.234-.362,1.509,1.509,0,0,0,.116-.67Zm-2.034,6.5a1.643,1.643,0,0,0-1.428.739,1.682,1.682,0,0,0-.131,1.616,1.7,1.7,0,0,0,3.064.371,2.153,2.153,0,0,0,.314-.987,1.649,1.649,0,0,0-.5-1.3A1.611,1.611,0,0,0,10.57,38.735Zm22.2-15.4s-7.275-.118-8.234-.172-2.249-.072-3.539-.082-2.562,0-3.53.082-1.6.127-1.6.127a.753.753,0,0,0,0,1.494s.645.082,1.6.136,2.249.054,3.53.072,2.571,0,3.539-.072,8.234-.181,8.234-.181a.694.694,0,0,0,.573-.58.722.722,0,0,0-.108-.549.707.707,0,0,0-.466-.3Zm0,8.314s-7.275-.145-8.234-.226-2.249-.109-3.539-.1-2.562.082-3.53.154a10.64,10.64,0,0,0-1.165.154,4.436,4.436,0,0,0-.439.091.572.572,0,0,0,0,1.1l.439.091c.287,0,.69.118,1.165.154.968.072,2.249.127,3.53.145a32.907,32.907,0,0,0,3.539-.1c.968-.1,8.234-.217,8.234-.217a.631.631,0,0,0,.475-.489.622.622,0,0,0-.066-.5.609.609,0,0,0-.409-.283Zm0,8.26s-7.275-.163-8.234-.254-2.249-.145-3.539-.181H19.117a9.38,9.38,0,0,0-1.649.091,6.819,6.819,0,0,0-1.165.272,2.672,2.672,0,0,0-.439.181.649.649,0,0,0-.206.208.547.547,0,0,0,.206.725,3.163,3.163,0,0,0,.439.19,6.923,6.923,0,0,0,1.165.263c.484.063,1.048.063,1.649.1s1.245,0,1.882,0c1.29,0,2.571-.082,3.539-.172s8.234-.254,8.234-.254a.608.608,0,0,0,0-1.177Z" transform="translate(0.022)" fill="#fff"/>
</svg>
