<svg xmlns="http://www.w3.org/2000/svg" width="1220" height="203" viewBox="0 0 1220 203">
  <g id="Group_5689" data-name="Group 5689" transform="translate(-110 -4753)">
    <g id="Rectangle_964" data-name="Rectangle 964" transform="translate(110 4816)" fill="#b0d9c1" stroke="#5bc3af" stroke-width="1">
      <rect width="100" height="140" stroke="none"/>
      <rect x="0.5" y="0.5" width="99" height="139" fill="none"/>
    </g>
    <g id="Rectangle_1086" data-name="Rectangle 1086" transform="translate(209 4816)" fill="#fff" stroke="#5bc3af" stroke-width="1">
      <rect width="100" height="140" stroke="none"/>
      <rect x="0.5" y="0.5" width="99" height="139" fill="none"/>
    </g>
    <g id="Rectangle_1087" data-name="Rectangle 1087" transform="translate(308 4816)" fill="#fff" stroke="#5bc3af" stroke-width="1">
      <rect width="80" height="140" stroke="none"/>
      <rect x="0.5" y="0.5" width="79" height="139" fill="none"/>
    </g>
    <g id="Rectangle_1088" data-name="Rectangle 1088" transform="translate(387 4816)" fill="#fff" stroke="#5bc3af" stroke-width="1">
      <rect width="92" height="140" stroke="none"/>
      <rect x="0.5" y="0.5" width="91" height="139" fill="none"/>
    </g>
    <g id="Rectangle_1089" data-name="Rectangle 1089" transform="translate(478 4816)" fill="#fff" stroke="#5bc3af" stroke-width="1">
      <rect width="100" height="140" stroke="none"/>
      <rect x="0.5" y="0.5" width="99" height="139" fill="none"/>
    </g>
    <g id="Rectangle_1090" data-name="Rectangle 1090" transform="translate(577 4816)" fill="#fff" stroke="#5bc3af" stroke-width="1">
      <rect width="110" height="140" stroke="none"/>
      <rect x="0.5" y="0.5" width="109" height="139" fill="none"/>
    </g>
    <g id="Rectangle_1091" data-name="Rectangle 1091" transform="translate(686 4816)" fill="#fff" stroke="#5bc3af" stroke-width="1">
      <rect width="80" height="140" stroke="none"/>
      <rect x="0.5" y="0.5" width="79" height="139" fill="none"/>
    </g>
    <g id="Rectangle_1092" data-name="Rectangle 1092" transform="translate(765 4816)" fill="#fff" stroke="#5bc3af" stroke-width="1">
      <rect width="92" height="140" stroke="none"/>
      <rect x="0.5" y="0.5" width="91" height="139" fill="none"/>
    </g>
    <g id="Rectangle_1093" data-name="Rectangle 1093" transform="translate(856 4816)" fill="#fff" stroke="#5bc3af" stroke-width="1">
      <rect width="92" height="140" stroke="none"/>
      <rect x="0.5" y="0.5" width="91" height="139" fill="none"/>
    </g>
    <g id="Rectangle_1094" data-name="Rectangle 1094" transform="translate(947 4816)" fill="#fff" stroke="#5bc3af" stroke-width="1">
      <rect width="100" height="140" stroke="none"/>
      <rect x="0.5" y="0.5" width="99" height="139" fill="none"/>
    </g>
    <g id="Rectangle_1095" data-name="Rectangle 1095" transform="translate(1046 4816)" fill="#fff" stroke="#5bc3af" stroke-width="1">
      <rect width="92" height="140" stroke="none"/>
      <rect x="0.5" y="0.5" width="91" height="139" fill="none"/>
    </g>
    <g id="Rectangle_1096" data-name="Rectangle 1096" transform="translate(1137 4816)" fill="#fff" stroke="#5bc3af" stroke-width="1">
      <rect width="110" height="140" stroke="none"/>
      <rect x="0.5" y="0.5" width="109" height="139" fill="none"/>
    </g>
    <g id="Rectangle_1097" data-name="Rectangle 1097" transform="translate(1246 4816)" fill="#fff" stroke="#5bc3af" stroke-width="1">
      <rect width="84" height="140" stroke="none"/>
      <rect x="0.5" y="0.5" width="83" height="139" fill="none"/>
    </g>
    <text id="Cardiac_Red_Flags" data-name="Cardiac Red Flags" transform="translate(126 4829)" fill="#0a4a79" font-size="15" font-family="Oswald-Bold, Oswald" font-weight="700"><tspan x="0" y="18">Cardiac </tspan><tspan x="0" y="38">Red Flags</tspan></text>
    <text id="Family_history_of_LVH_particularly_if_no_evidence_of_male-to-male_transmission" data-name="Family history of LVH, particularly if no evidence of male-to-male transmission" transform="translate(225 4822)" fill="#0a4a79" font-size="15" font-family="Oswald-Light, Oswald" font-weight="300"><tspan x="0" y="18">Family history </tspan><tspan x="0" y="38">of LVH, </tspan><tspan x="0" y="58">particularly if </tspan><tspan x="0" y="78">no evidence of </tspan><tspan x="0" y="98">male-to-male </tspan><tspan x="0" y="118">transmission</tspan></text>
    <text id="Short_PQ_interval_" data-name="Short PQ 
interval†" transform="translate(324 4841)" fill="#0a4a79" font-size="15" font-family="Oswald-Light, Oswald" font-weight="300"><tspan x="0" y="0">Short PQ </tspan><tspan x="0" y="20">interval</tspan><tspan y="20" font-size="8.75" baseline-shift="4.999500156940817">†</tspan></text>
    <text id="Bradycardia" transform="translate(403 4843)" fill="#0a4a79" font-size="15" font-family="Oswald-Light, Oswald" font-weight="300"><tspan x="0" y="0">Bradycardia</tspan></text>
    <text id="Chronotropic_incompetence" data-name="Chronotropic 
incompetence" transform="translate(494 4841)" fill="#0a4a79" font-size="15" font-family="Oswald-Light, Oswald" font-weight="300"><tspan x="0" y="0">Chronotropic </tspan><tspan x="0" y="20">incompetence</tspan></text>
    <text id="Atrioventricular_blocks_" data-name="Atrioventricular 
blocks†" transform="translate(593 4841)" fill="#0a4a79" font-size="15" font-family="Oswald-Light, Oswald" font-weight="300"><tspan x="0" y="0">Atrioventricular </tspan><tspan x="0" y="20">blocks</tspan><tspan y="20" font-size="8.75" baseline-shift="4.999500156940817">†</tspan></text>
    <text id="LVH_with_normal_systolic_function" data-name="LVH with normal systolic function" transform="translate(702 4822)" fill="#0a4a79" font-size="15" font-family="Oswald-Light, Oswald" font-weight="300"><tspan x="0" y="18">LVH with </tspan><tspan x="0" y="38">normal </tspan><tspan x="0" y="58">systolic </tspan><tspan x="0" y="78">function</tspan></text>
    <text id="Reduced_global_longitudinal_strain" data-name="Reduced global longitudinal strain" transform="translate(781 4822)" fill="#0a4a79" font-size="15" font-family="Oswald-Light, Oswald" font-weight="300"><tspan x="0" y="18">Reduced </tspan><tspan x="0" y="38">global </tspan><tspan x="0" y="58">longitudinal </tspan><tspan x="0" y="78">strain</tspan></text>
    <text id="Mild-to-moderate_aortic_root_dilation" data-name="Mild-to-moderate aortic root dilation" transform="translate(872 4822)" fill="#0a4a79" font-size="15" font-family="Oswald-Light, Oswald" font-weight="300"><tspan x="0" y="18">Mild-to-</tspan><tspan x="0" y="38">moderate </tspan><tspan x="0" y="58">aortic root </tspan><tspan x="0" y="78">dilation</tspan></text>
    <text id="Mitral_and_aortic_valve_thickening_with_mild-to-moderate_regurgitation" data-name="Mitral and aortic valve thickening with mild-to-moderate regurgitation" transform="translate(963 4822)" fill="#0a4a79" font-size="15" font-family="Oswald-Light, Oswald" font-weight="300"><tspan x="0" y="18">Mitral and </tspan><tspan x="0" y="38">aortic valve </tspan><tspan x="0" y="58">thickening </tspan><tspan x="0" y="78">with mild-to-</tspan><tspan x="0" y="98">moderate </tspan><tspan x="0" y="118">regurgitation</tspan></text>
    <text id="Hypertrophy_of_papillary_muscles" data-name="Hypertrophy of papillary muscles" transform="translate(1062 4822)" fill="#0a4a79" font-size="15" font-family="Oswald-Light, Oswald" font-weight="300"><tspan x="0" y="18">Hypertrophy </tspan><tspan x="0" y="38">of papillary </tspan><tspan x="0" y="58">muscles</tspan></text>
    <text id="Mid-layer_posterolateral_late_gadolinium_enhancement" data-name="Mid-layer posterolateral late gadolinium enhancement" transform="translate(1153 4822)" fill="#0a4a79" font-size="15" font-family="Oswald-Light, Oswald" font-weight="300"><tspan x="0" y="18">Mid-layer </tspan><tspan x="0" y="38">posterolateral </tspan><tspan x="0" y="58">late gadolinium </tspan><tspan x="0" y="78">enhancement</tspan></text>
    <text id="Low_native_T1" data-name="Low native T1" transform="translate(1262 4822)" fill="#0a4a79" font-size="15" font-family="Oswald-Light, Oswald" font-weight="300"><tspan x="0" y="18">Low </tspan><tspan x="0" y="38">native T1</tspan></text>
    <g id="Rectangle_964-2" data-name="Rectangle 964" transform="translate(110 4753)" fill="#b0d9c1" stroke="#5bc3af" stroke-width="1">
      <rect width="100" height="64" stroke="none"/>
      <rect x="0.5" y="0.5" width="99" height="63" fill="none"/>
    </g>
    <g id="Rectangle_1082" data-name="Rectangle 1082" transform="translate(209 4753)" fill="rgba(91,195,175,0.12)" stroke="#5bc3af" stroke-width="1">
      <rect width="100" height="64" stroke="none"/>
      <rect x="0.5" y="0.5" width="99" height="63" fill="none"/>
    </g>
    <g id="Rectangle_1083" data-name="Rectangle 1083" transform="translate(308 4753)" fill="rgba(91,195,175,0.12)" stroke="#5bc3af" stroke-width="1">
      <rect width="379" height="64" stroke="none"/>
      <rect x="0.5" y="0.5" width="378" height="63" fill="none"/>
    </g>
    <g id="Rectangle_1084" data-name="Rectangle 1084" transform="translate(686 4753)" fill="rgba(91,195,175,0.12)" stroke="#5bc3af" stroke-width="1">
      <rect width="361" height="64" stroke="none"/>
      <rect x="0.5" y="0.5" width="360" height="63" fill="none"/>
    </g>
    <g id="Rectangle_1085" data-name="Rectangle 1085" transform="translate(1046 4753)" fill="rgba(91,195,175,0.12)" stroke="#5bc3af" stroke-width="1">
      <rect width="284" height="64" stroke="none"/>
      <rect x="0.5" y="0.5" width="283" height="63" fill="none"/>
    </g>
    <text id="Diagnostic_Tool" data-name="Diagnostic Tool" transform="translate(126 4763)" fill="#0a4a79" font-size="16" font-family="Oswald-Bold, Oswald" font-weight="700"><tspan x="0" y="19">Diagnostic </tspan><tspan x="0" y="41">Tool</tspan></text>
    <text id="History" transform="translate(225 4782)" fill="#0a4a79" font-size="16" font-family="Oswald-Light, Oswald" font-weight="300"><tspan x="0" y="0">History</tspan></text>
    <text id="Electrocardiography" transform="translate(324 4782)" fill="#0a4a79" font-size="16" font-family="Oswald-Light, Oswald" font-weight="300"><tspan x="0" y="0">Electrocardiography</tspan></text>
    <text id="_2D-echocardiography" data-name="2D-echocardiography" transform="translate(702 4782)" fill="#0a4a79" font-size="16" font-family="Oswald-Light, Oswald" font-weight="300"><tspan x="0" y="0">2D-echocardiography</tspan></text>
    <text id="Cardiac_Magnetic_Resonance" data-name="Cardiac Magnetic Resonance" transform="translate(1062 4782)" fill="#0a4a79" font-size="16" font-family="Oswald-Light, Oswald" font-weight="300"><tspan x="0" y="0">Cardiac Magnetic Resonance</tspan></text>
  </g>
</svg>
