<svg xmlns="http://www.w3.org/2000/svg" xmlns:xlink="http://www.w3.org/1999/xlink" width="244.566" height="123.89" viewBox="0 0 244.566 123.89">
  <defs>
    <clipPath id="clip-path">
      <path id="Path_80" data-name="Path 80" d="M0,88.367H244.566V-35.523H0Z" transform="translate(0 35.523)" fill="none"/>
    </clipPath>
    <filter id="Path_76" x="21.926" y="19.236" width="200.713" height="91.42" filterUnits="userSpaceOnUse">
      <feOffset dy="3" input="SourceAlpha"/>
      <feGaussianBlur stdDeviation="3" result="blur"/>
      <feFlood flood-opacity="0.302"/>
      <feComposite operator="in" in2="blur"/>
      <feComposite in="SourceGraphic"/>
    </filter>
  </defs>
  <g id="Group_5468" data-name="Group 5468" clip-path="url(#clip-path)">
    <g id="Group_5464" data-name="Group 5464" transform="translate(30.926 25.236)">
      <g transform="matrix(1, 0, 0, 1, -30.93, -25.24)" filter="url(#Path_76)">
        <path id="Path_76-2" data-name="Path 76" d="M2.687,8.3a5.758,5.758,0,0,0-5.179,6.283L1.923,60.431A5.759,5.759,0,0,0,8.206,65.61L174.988,49.549a5.757,5.757,0,0,0,5.179-6.281L175.753-2.577a5.755,5.755,0,0,0-6.283-5.179Z" transform="translate(33.44 33.02)" fill="#fff"/>
      </g>
    </g>
    <g id="Group_5465" data-name="Group 5465" transform="translate(151.884 35.201)">
      <path id="Path_77" data-name="Path 77" d="M21.527,6.815C21.477,6.3,20.2,5.079,17.709,3.2,15.153,1.325,13.77.3,13.567.193a8.012,8.012,0,0,1-1.9-1.744,2.839,2.839,0,0,1-.94-1.771c-.019-.192-.306-.484-.794-.889a1.454,1.454,0,0,0-1.507-.3,2.7,2.7,0,0,1-1.875-.141,7.719,7.719,0,0,1-.686-1.089,1.352,1.352,0,0,0-1.474-.63l-3.342.645A11.557,11.557,0,0,0-.931-5.6a9.553,9.553,0,0,0-.953.8,3.9,3.9,0,0,1-2.038.839,6.647,6.647,0,0,0-2.059.649A20.11,20.11,0,0,1-9.724-.841a31.07,31.07,0,0,0-4.444,2.546A9.059,9.059,0,0,0-16.9,4.733a16.068,16.068,0,0,0-1.9,3.007,2.121,2.121,0,0,0-.056,1.42,1.89,1.89,0,0,1-.372,1.449,4.068,4.068,0,0,0-.955,2.788,26.056,26.056,0,0,0,.161,3.005c.215,2.228.548,3.673.984,4.208A8.637,8.637,0,0,1-17.148,24.8a6.2,6.2,0,0,0,1.627,4.21,20.4,20.4,0,0,0,2.059,2.05,10.333,10.333,0,0,0,4.7,1.41,22.99,22.99,0,0,1,2.2,1.523A6.73,6.73,0,0,0-3.3,35.157,38.748,38.748,0,0,1,4.81,37.331,8.259,8.259,0,0,0,6.143,36.5a6.642,6.642,0,0,1,3.049-1,4.323,4.323,0,0,0,2.491-.818A7.937,7.937,0,0,0,12.908,33.4l4.909-3.747a5,5,0,0,0,1.864-3.97,15.406,15.406,0,0,1,.293-3.627c1.06-2.348,1.633-3.753,1.728-4.084a7.878,7.878,0,0,0,.42-3.638q-.242-1.516-.44-4.582c-.116-1.852-.143-2.813-.155-2.939" transform="translate(20.178 6.388)" fill="#d31111"/>
    </g>
    <g id="Group_5466" data-name="Group 5466" transform="translate(100.812 40.958)">
      <path id="Path_78" data-name="Path 78" d="M15.752,21.527c.511-.05,1.736-1.325,3.617-3.817,1.873-2.557,2.9-3.939,3.005-4.142a8.012,8.012,0,0,1,1.744-1.9,2.839,2.839,0,0,1,1.771-.94c.192-.019.484-.306.889-.794a1.454,1.454,0,0,0,.3-1.507,2.7,2.7,0,0,1,.141-1.875,7.719,7.719,0,0,1,1.089-.686,1.352,1.352,0,0,0,.63-1.474L28.3,1.047a11.557,11.557,0,0,0-.126-1.978,9.553,9.553,0,0,0-.8-.953,3.908,3.908,0,0,1-.839-2.038,6.647,6.647,0,0,0-.649-2.059,20.11,20.11,0,0,1-2.48-3.743,31.07,31.07,0,0,0-2.546-4.444A9.059,9.059,0,0,0,17.833-16.9a16.068,16.068,0,0,0-3.007-1.9,2.121,2.121,0,0,0-1.42-.056,1.89,1.89,0,0,1-1.449-.372,4.068,4.068,0,0,0-2.788-.955,26.056,26.056,0,0,0-3.005.161c-2.228.215-3.673.548-4.208.984a8.637,8.637,0,0,1-4.189,1.881,6.2,6.2,0,0,0-4.21,1.627,20.4,20.4,0,0,0-2.05,2.059,10.333,10.333,0,0,0-1.41,4.7,22.99,22.99,0,0,1-1.523,2.2A6.73,6.73,0,0,0-12.591-3.3,38.748,38.748,0,0,1-14.765,4.81a8.26,8.26,0,0,0,.835,1.333,6.642,6.642,0,0,1,1,3.049,4.323,4.323,0,0,0,.818,2.491,8.029,8.029,0,0,0,1.275,1.226l3.747,4.909a5,5,0,0,0,3.97,1.864,15.406,15.406,0,0,1,3.627.293c2.348,1.06,3.753,1.633,4.084,1.728a7.878,7.878,0,0,0,3.638.42q1.516-.242,4.582-.44c1.852-.116,2.813-.143,2.939-.155" transform="translate(14.765 20.178)" fill="#d31111"/>
    </g>
    <g id="Group_5467" data-name="Group 5467" transform="translate(49.293 45.715)">
      <path id="Path_79" data-name="Path 79" d="M.112,7c-.327.395-.291,2.164.143,5.256.484,3.133.736,4.834.8,5.055a8.029,8.029,0,0,1,.112,2.577,2.847,2.847,0,0,1-.587,1.92,2.114,2.114,0,0,0-.066,1.188,1.449,1.449,0,0,0,.847,1.279A2.688,2.688,0,0,1,2.593,25.7a7.7,7.7,0,0,1-.285,1.255,1.353,1.353,0,0,0,.6,1.488L5.722,30.35A11.524,11.524,0,0,0,7.21,31.659a9.314,9.314,0,0,0,1.238.112,3.9,3.9,0,0,1,2.034.847,6.631,6.631,0,0,0,1.914,1,20.137,20.137,0,0,1,4.4.891,30.738,30.738,0,0,0,4.944,1.341,9.023,9.023,0,0,0,4.07-.211,15.971,15.971,0,0,0,3.466-.787c.312-.074.645-.38,1.044-.963a1.9,1.9,0,0,1,1.288-.761,4.079,4.079,0,0,0,2.648-1.3,25.824,25.824,0,0,0,2.009-2.238c1.424-1.728,2.212-2.984,2.282-3.671a8.64,8.64,0,0,1,1.631-4.293A6.208,6.208,0,0,0,42,17.5,20.223,20.223,0,0,0,42,14.593a10.332,10.332,0,0,0-2.323-4.318,22.66,22.66,0,0,1-.482-2.635A6.739,6.739,0,0,0,37.71,4.513a38.9,38.9,0,0,1-4.2-7.273,8.219,8.219,0,0,0-1.532-.351,6.653,6.653,0,0,1-2.865-1.449,4.313,4.313,0,0,0-2.34-1.184,8.026,8.026,0,0,0-1.767.035L18.885-6.53A5,5,0,0,0,14.76-5.04a15.407,15.407,0,0,1-2.772,2.356c-2.41.911-3.807,1.5-4.109,1.666A7.9,7.9,0,0,0,5.009,1.258Q4.11,2.5,2.082,4.808C.854,6.2.193,6.9.112,7" transform="translate(0.105 6.559)" fill="#d31111"/>
    </g>
  </g>
</svg>
