<svg xmlns="http://www.w3.org/2000/svg" width="1016" height="782" viewBox="0 0 1016 782">
  <g id="Group_5623" data-name="Group 5623" transform="translate(-212 -2456)">
    <g id="Rectangle_996" data-name="Rectangle 996" transform="translate(212 2456)" fill="rgba(91,195,175,0.12)" stroke="#5bc3af" stroke-width="1">
      <rect width="204" height="44" stroke="none"/>
      <rect x="0.5" y="0.5" width="203" height="43" fill="none"/>
    </g>
    <g id="Rectangle_1010" data-name="Rectangle 1010" transform="translate(212 2640)" fill="rgba(91,195,175,0.12)" stroke="#5bc3af" stroke-width="1">
      <rect width="204" height="44" stroke="none"/>
      <rect x="0.5" y="0.5" width="203" height="43" fill="none"/>
    </g>
    <g id="Rectangle_1025" data-name="Rectangle 1025" transform="translate(212 2899)" fill="rgba(91,195,175,0.12)" stroke="#5bc3af" stroke-width="1">
      <rect width="204" height="44" stroke="none"/>
      <rect x="0.5" y="0.5" width="203" height="43" fill="none"/>
    </g>
    <g id="Rectangle_1026" data-name="Rectangle 1026" transform="translate(212 2942)" fill="rgba(91,195,175,0.12)" stroke="#5bc3af" stroke-width="1">
      <rect width="204" height="78" stroke="none"/>
      <rect x="0.5" y="0.5" width="203" height="77" fill="none"/>
    </g>
    <g id="Rectangle_1035" data-name="Rectangle 1035" transform="translate(212 3019)" fill="rgba(91,195,175,0.12)" stroke="#5bc3af" stroke-width="1">
      <rect width="204" height="78" stroke="none"/>
      <rect x="0.5" y="0.5" width="203" height="77" fill="none"/>
    </g>
    <g id="Rectangle_1015" data-name="Rectangle 1015" transform="translate(212 2683)" fill="rgba(91,195,175,0.12)" stroke="#5bc3af" stroke-width="1">
      <rect width="204" height="44" stroke="none"/>
      <rect x="0.5" y="0.5" width="203" height="43" fill="none"/>
    </g>
    <g id="Rectangle_1001" data-name="Rectangle 1001" transform="translate(212 2499)" fill="rgba(91,195,175,0.12)" stroke="#5bc3af" stroke-width="1">
      <rect width="204" height="142" stroke="none"/>
      <rect x="0.5" y="0.5" width="203" height="141" fill="none"/>
    </g>
    <g id="Rectangle_1016" data-name="Rectangle 1016" transform="translate(212 2726)" fill="rgba(91,195,175,0.12)" stroke="#5bc3af" stroke-width="1">
      <rect width="204" height="174" stroke="none"/>
      <rect x="0.5" y="0.5" width="203" height="173" fill="none"/>
    </g>
    <g id="Rectangle_1036" data-name="Rectangle 1036" transform="translate(212 3096)" fill="rgba(91,195,175,0.12)" stroke="#5bc3af" stroke-width="1">
      <rect width="204" height="142" stroke="none"/>
      <rect x="0.5" y="0.5" width="203" height="141" fill="none"/>
    </g>
    <g id="Rectangle_999" data-name="Rectangle 999" transform="translate(618 2456)" fill="rgba(91,195,175,0.12)" stroke="#5bc3af" stroke-width="1">
      <rect width="204" height="44" stroke="none"/>
      <rect x="0.5" y="0.5" width="203" height="43" fill="none"/>
    </g>
    <g id="Rectangle_1007" data-name="Rectangle 1007" transform="translate(618 2640)" fill="#fff" stroke="#5bc3af" stroke-width="1">
      <rect width="204" height="44" stroke="none"/>
      <rect x="0.5" y="0.5" width="203" height="43" fill="none"/>
    </g>
    <g id="Rectangle_1023" data-name="Rectangle 1023" transform="translate(618 2899)" fill="#fff" stroke="#5bc3af" stroke-width="1">
      <rect width="204" height="44" stroke="none"/>
      <rect x="0.5" y="0.5" width="203" height="43" fill="none"/>
    </g>
    <g id="Rectangle_1027" data-name="Rectangle 1027" transform="translate(618 2942)" fill="#fff" stroke="#5bc3af" stroke-width="1">
      <rect width="204" height="78" stroke="none"/>
      <rect x="0.5" y="0.5" width="203" height="77" fill="none"/>
    </g>
    <g id="Rectangle_1031" data-name="Rectangle 1031" transform="translate(618 3019)" fill="#fff" stroke="#5bc3af" stroke-width="1">
      <rect width="204" height="78" stroke="none"/>
      <rect x="0.5" y="0.5" width="203" height="77" fill="none"/>
    </g>
    <g id="Rectangle_1011" data-name="Rectangle 1011" transform="translate(618 2683)" fill="#fff" stroke="#5bc3af" stroke-width="1">
      <rect width="204" height="44" stroke="none"/>
      <rect x="0.5" y="0.5" width="203" height="43" fill="none"/>
    </g>
    <g id="Rectangle_1003" data-name="Rectangle 1003" transform="translate(618 2499)" fill="#fff" stroke="#5bc3af" stroke-width="1">
      <rect width="204" height="142" stroke="none"/>
      <rect x="0.5" y="0.5" width="203" height="141" fill="none"/>
    </g>
    <g id="Rectangle_1017" data-name="Rectangle 1017" transform="translate(618 2726)" fill="#fff" stroke="#5bc3af" stroke-width="1">
      <rect width="204" height="174" stroke="none"/>
      <rect x="0.5" y="0.5" width="203" height="173" fill="none"/>
    </g>
    <g id="Rectangle_1038" data-name="Rectangle 1038" transform="translate(618 3096)" fill="#fff" stroke="#5bc3af" stroke-width="1">
      <rect width="204" height="142" stroke="none"/>
      <rect x="0.5" y="0.5" width="203" height="141" fill="none"/>
    </g>
    <g id="Rectangle_997" data-name="Rectangle 997" transform="translate(415 2456)" fill="rgba(91,195,175,0.12)" stroke="#5bc3af" stroke-width="1">
      <rect width="204" height="44" stroke="none"/>
      <rect x="0.5" y="0.5" width="203" height="43" fill="none"/>
    </g>
    <g id="Rectangle_1009" data-name="Rectangle 1009" transform="translate(415 2640)" fill="#fff" stroke="#5bc3af" stroke-width="1">
      <rect width="204" height="44" stroke="none"/>
      <rect x="0.5" y="0.5" width="203" height="43" fill="none"/>
    </g>
    <g id="Rectangle_1024" data-name="Rectangle 1024" transform="translate(415 2899)" fill="#fff" stroke="#5bc3af" stroke-width="1">
      <rect width="204" height="44" stroke="none"/>
      <rect x="0.5" y="0.5" width="203" height="43" fill="none"/>
    </g>
    <g id="Rectangle_1028" data-name="Rectangle 1028" transform="translate(415 2942)" fill="#fff" stroke="#5bc3af" stroke-width="1">
      <rect width="204" height="78" stroke="none"/>
      <rect x="0.5" y="0.5" width="203" height="77" fill="none"/>
    </g>
    <g id="Rectangle_1032" data-name="Rectangle 1032" transform="translate(415 3019)" fill="#fff" stroke="#5bc3af" stroke-width="1">
      <rect width="204" height="78" stroke="none"/>
      <rect x="0.5" y="0.5" width="203" height="77" fill="none"/>
    </g>
    <g id="Rectangle_1012" data-name="Rectangle 1012" transform="translate(415 2683)" fill="#fff" stroke="#5bc3af" stroke-width="1">
      <rect width="204" height="44" stroke="none"/>
      <rect x="0.5" y="0.5" width="203" height="43" fill="none"/>
    </g>
    <g id="Rectangle_1002" data-name="Rectangle 1002" transform="translate(415 2499)" fill="#fff" stroke="#5bc3af" stroke-width="1">
      <rect width="204" height="142" stroke="none"/>
      <rect x="0.5" y="0.5" width="203" height="141" fill="none"/>
    </g>
    <g id="Rectangle_1018" data-name="Rectangle 1018" transform="translate(415 2726)" fill="#fff" stroke="#5bc3af" stroke-width="1">
      <rect width="204" height="174" stroke="none"/>
      <rect x="0.5" y="0.5" width="203" height="173" fill="none"/>
    </g>
    <g id="Rectangle_1037" data-name="Rectangle 1037" transform="translate(415 3096)" fill="#fff" stroke="#5bc3af" stroke-width="1">
      <rect width="204" height="142" stroke="none"/>
      <rect x="0.5" y="0.5" width="203" height="141" fill="none"/>
    </g>
    <g id="Rectangle_998" data-name="Rectangle 998" transform="translate(821 2456)" fill="rgba(91,195,175,0.12)" stroke="#5bc3af" stroke-width="1">
      <rect width="204" height="44" stroke="none"/>
      <rect x="0.5" y="0.5" width="203" height="43" fill="none"/>
    </g>
    <g id="Rectangle_1008" data-name="Rectangle 1008" transform="translate(821 2640)" fill="rgba(91,195,175,0.12)" stroke="#5bc3af" stroke-width="1">
      <rect width="204" height="44" stroke="none"/>
      <rect x="0.5" y="0.5" width="203" height="43" fill="none"/>
    </g>
    <g id="Rectangle_1022" data-name="Rectangle 1022" transform="translate(821 2899)" fill="rgba(91,195,175,0.12)" stroke="#5bc3af" stroke-width="1">
      <rect width="204" height="44" stroke="none"/>
      <rect x="0.5" y="0.5" width="203" height="43" fill="none"/>
    </g>
    <g id="Rectangle_1029" data-name="Rectangle 1029" transform="translate(821 2942)" fill="rgba(91,195,175,0.12)" stroke="#5bc3af" stroke-width="1">
      <rect width="204" height="78" stroke="none"/>
      <rect x="0.5" y="0.5" width="203" height="77" fill="none"/>
    </g>
    <g id="Rectangle_1033" data-name="Rectangle 1033" transform="translate(821 3019)" fill="rgba(91,195,175,0.12)" stroke="#5bc3af" stroke-width="1">
      <rect width="204" height="78" stroke="none"/>
      <rect x="0.5" y="0.5" width="203" height="77" fill="none"/>
    </g>
    <g id="Rectangle_1013" data-name="Rectangle 1013" transform="translate(821 2683)" fill="rgba(91,195,175,0.12)" stroke="#5bc3af" stroke-width="1">
      <rect width="204" height="44" stroke="none"/>
      <rect x="0.5" y="0.5" width="203" height="43" fill="none"/>
    </g>
    <g id="Rectangle_1004" data-name="Rectangle 1004" transform="translate(821 2499)" fill="rgba(91,195,175,0.12)" stroke="#5bc3af" stroke-width="1">
      <rect width="204" height="142" stroke="none"/>
      <rect x="0.5" y="0.5" width="203" height="141" fill="none"/>
    </g>
    <g id="Rectangle_1019" data-name="Rectangle 1019" transform="translate(821 2726)" fill="rgba(91,195,175,0.12)" stroke="#5bc3af" stroke-width="1">
      <rect width="204" height="174" stroke="none"/>
      <rect x="0.5" y="0.5" width="203" height="173" fill="none"/>
    </g>
    <g id="Rectangle_1039" data-name="Rectangle 1039" transform="translate(821 3096)" fill="rgba(91,195,175,0.12)" stroke="#5bc3af" stroke-width="1">
      <rect width="204" height="142" stroke="none"/>
      <rect x="0.5" y="0.5" width="203" height="141" fill="none"/>
    </g>
    <g id="Rectangle_1000" data-name="Rectangle 1000" transform="translate(1024 2456)" fill="rgba(91,195,175,0.12)" stroke="#5bc3af" stroke-width="1">
      <rect width="204" height="44" stroke="none"/>
      <rect x="0.5" y="0.5" width="203" height="43" fill="none"/>
    </g>
    <g id="Rectangle_1006" data-name="Rectangle 1006" transform="translate(1024 2640)" fill="#fff" stroke="#5bc3af" stroke-width="1">
      <rect width="204" height="44" stroke="none"/>
      <rect x="0.5" y="0.5" width="203" height="43" fill="none"/>
    </g>
    <g id="Rectangle_1021" data-name="Rectangle 1021" transform="translate(1024 2899)" fill="#fff" stroke="#5bc3af" stroke-width="1">
      <rect width="204" height="44" stroke="none"/>
      <rect x="0.5" y="0.5" width="203" height="43" fill="none"/>
    </g>
    <g id="Rectangle_1030" data-name="Rectangle 1030" transform="translate(1024 2942)" fill="#fff" stroke="#5bc3af" stroke-width="1">
      <rect width="204" height="78" stroke="none"/>
      <rect x="0.5" y="0.5" width="203" height="77" fill="none"/>
    </g>
    <g id="Rectangle_1034" data-name="Rectangle 1034" transform="translate(1024 3019)" fill="#fff" stroke="#5bc3af" stroke-width="1">
      <rect width="204" height="78" stroke="none"/>
      <rect x="0.5" y="0.5" width="203" height="77" fill="none"/>
    </g>
    <g id="Rectangle_1014" data-name="Rectangle 1014" transform="translate(1024 2683)" fill="#fff" stroke="#5bc3af" stroke-width="1">
      <rect width="204" height="44" stroke="none"/>
      <rect x="0.5" y="0.5" width="203" height="43" fill="none"/>
    </g>
    <g id="Rectangle_1005" data-name="Rectangle 1005" transform="translate(1024 2499)" fill="#fff" stroke="#5bc3af" stroke-width="1">
      <rect width="204" height="142" stroke="none"/>
      <rect x="0.5" y="0.5" width="203" height="141" fill="none"/>
    </g>
    <g id="Rectangle_1020" data-name="Rectangle 1020" transform="translate(1024 2726)" fill="#fff" stroke="#5bc3af" stroke-width="1">
      <rect width="204" height="174" stroke="none"/>
      <rect x="0.5" y="0.5" width="203" height="173" fill="none"/>
    </g>
    <g id="Rectangle_1040" data-name="Rectangle 1040" transform="translate(1024 3096)" fill="#fff" stroke="#5bc3af" stroke-width="1">
      <rect width="204" height="142" stroke="none"/>
      <rect x="0.5" y="0.5" width="203" height="141" fill="none"/>
    </g>
    <text id="HCM" transform="translate(425 2486)" fill="#0a4a79" font-size="22" font-family="Oswald-Light, Oswald" font-weight="300"><tspan x="0" y="0">HCM</tspan></text>
    <text id="Increased_LVM" data-name="Increased LVM" transform="translate(222 2670)" fill="#0a4a79" font-size="22" font-family="Oswald-Light, Oswald" font-weight="300"><tspan x="0" y="0">Increased LVM</tspan></text>
    <text id="Native_T1_mapping" data-name="Native T1 mapping" transform="translate(222 2929)" fill="#0a4a79" font-size="22" font-family="Oswald-Light, Oswald" font-weight="300"><tspan x="0" y="0">Native T1 mapping</tspan></text>
    <text id="Myocardial_annulment_at_LGE" data-name="Myocardial annulment at LGE" transform="translate(222 2946)" fill="#0a4a79" font-size="22" font-family="Oswald-Light, Oswald" font-weight="300"><tspan x="0" y="26">Myocardial annulment </tspan><tspan x="0" y="58">at LGE</tspan></text>
    <text id="ΔT1_myocardium_blood_in_LGE" data-name="ΔT1 (myocardium/blood) in LGE" transform="translate(222 3023)" fill="#0a4a79" font-size="22" font-family="SymbolMT, Symbol"><tspan x="0" y="26">Δ</tspan><tspan y="26" font-family="Oswald-Light, Oswald" font-weight="300">T1 (myocardium/</tspan><tspan x="0" y="58" font-family="Oswald-Light, Oswald" font-weight="300">blood) in LGE</tspan></text>
    <text id="LVOT_obstruction" data-name="LVOT obstruction" transform="translate(222 2713)" fill="#0a4a79" font-size="22" font-family="Oswald-Light, Oswald" font-weight="300"><tspan x="0" y="0">LVOT obstruction</tspan></text>
    <text id="_" data-name="+++" transform="translate(425 2670)" fill="#0a4a79" font-size="22" font-family="Oswald-Light, Oswald" font-weight="300"><tspan x="0" y="0">+++</tspan></text>
    <text id="Increased" transform="translate(425 2929)" fill="#0a4a79" font-size="22" font-family="Oswald-Light, Oswald" font-weight="300"><tspan x="0" y="0">Increased</tspan></text>
    <text id="Annulled" transform="translate(425 2972)" fill="#0a4a79" font-size="22" font-family="Oswald-Light, Oswald" font-weight="300"><tspan x="0" y="0">Annulled</tspan></text>
    <text id="High_" data-name="High " transform="translate(425 3049)" fill="#0a4a79" font-size="22" font-family="Oswald-Light, Oswald" font-weight="300"><tspan x="0" y="0">High </tspan></text>
    <text id="Frequent_" data-name="Frequent " transform="translate(425 2713)" fill="#0a4a79" font-size="22" font-family="Oswald-Light, Oswald" font-weight="300"><tspan x="0" y="0">Frequent </tspan></text>
    <text id="Amyloidosis" transform="translate(628 2486)" fill="#0a4a79" font-size="22" font-family="Oswald-Light, Oswald" font-weight="300"><tspan x="0" y="0">Amyloidosis</tspan></text>
    <text id="_2" data-name="+++" transform="translate(628 2670)" fill="#0a4a79" font-size="22" font-family="Oswald-Light, Oswald" font-weight="300"><tspan x="0" y="0">+++</tspan></text>
    <text id="Greatly_increased" data-name="Greatly increased" transform="translate(628 2929)" fill="#0a4a79" font-size="22" font-family="Oswald-Light, Oswald" font-weight="300"><tspan x="0" y="0">Greatly increased</tspan></text>
    <text id="Not_annulled" data-name="Not annulled" transform="translate(628 2972)" fill="#0a4a79" font-size="22" font-family="Oswald-Light, Oswald" font-weight="300"><tspan x="0" y="0">Not annulled</tspan></text>
    <text id="Low" transform="translate(628 3049)" fill="#0a4a79" font-size="22" font-family="Oswald-Light, Oswald" font-weight="300"><tspan x="0" y="0">Low</tspan></text>
    <text id="Very_rare" data-name="Very rare" transform="translate(628 2713)" fill="#0a4a79" font-size="22" font-family="Oswald-Light, Oswald" font-weight="300"><tspan x="0" y="0">Very rare</tspan></text>
    <text id="Fabry_Disease" data-name="Fabry Disease" transform="translate(831 2486)" fill="#0a4a79" font-size="22" font-family="Oswald-Light, Oswald" font-weight="300"><tspan x="0" y="0">Fabry Disease</tspan></text>
    <text id="_3" data-name="+++" transform="translate(831 2670)" fill="#0a4a79" font-size="22" font-family="Oswald-Light, Oswald" font-weight="300"><tspan x="0" y="0">+++</tspan></text>
    <text id="Reduced" transform="translate(831 2929)" fill="#0a4a79" font-size="22" font-family="Oswald-Light, Oswald" font-weight="300"><tspan x="0" y="0">Reduced</tspan></text>
    <text id="Annulled-2" data-name="Annulled" transform="translate(831 2972)" fill="#0a4a79" font-size="22" font-family="Oswald-Light, Oswald" font-weight="300"><tspan x="0" y="0">Annulled</tspan></text>
    <text id="High_2" data-name="High " transform="translate(831 3049)" fill="#0a4a79" font-size="22" font-family="Oswald-Light, Oswald" font-weight="300"><tspan x="0" y="0">High </tspan></text>
    <text id="Rare_" data-name="Rare " transform="translate(831 2713)" fill="#0a4a79" font-size="22" font-family="Oswald-Light, Oswald" font-weight="300"><tspan x="0" y="0">Rare </tspan></text>
    <text id="Athlete_s_Heart" data-name="Athlete’s Heart" transform="translate(1034 2486)" fill="#0a4a79" font-size="22" font-family="Oswald-Light, Oswald" font-weight="300"><tspan x="0" y="0">Athlete’s Heart</tspan></text>
    <text id="_4" data-name="+" transform="translate(1034 2670)" fill="#0a4a79" font-size="22" font-family="Oswald-Light, Oswald" font-weight="300"><tspan x="0" y="0">+</tspan></text>
    <text id="Normal" transform="translate(1034 2929)" fill="#0a4a79" font-size="22" font-family="Oswald-Light, Oswald" font-weight="300"><tspan x="0" y="0">Normal</tspan></text>
    <text id="Annulled-3" data-name="Annulled" transform="translate(1034 2972)" fill="#0a4a79" font-size="22" font-family="Oswald-Light, Oswald" font-weight="300"><tspan x="0" y="0">Annulled</tspan></text>
    <text id="High_3" data-name="High " transform="translate(1034 3049)" fill="#0a4a79" font-size="22" font-family="Oswald-Light, Oswald" font-weight="300"><tspan x="0" y="0">High </tspan></text>
    <text id="Absent_" data-name="Absent " transform="translate(1034 2713)" fill="#0a4a79" font-size="22" font-family="Oswald-Light, Oswald" font-weight="300"><tspan x="0" y="0">Absent </tspan></text>
    <text id="Hypertrophic_pattern" data-name="Hypertrophic pattern" transform="translate(222 2529)" fill="#0a4a79" font-size="22" font-family="Oswald-Light, Oswald" font-weight="300"><tspan x="0" y="0">Hypertrophic pattern</tspan></text>
    <text id="LGE" transform="translate(222 2756)" fill="#0a4a79" font-size="22" font-family="Oswald-Light, Oswald" font-weight="300"><tspan x="0" y="0">LGE</tspan></text>
    <text id="Other_characteristics" data-name="Other characteristics" transform="translate(222 3126)" fill="#0a4a79" font-size="22" font-family="Oswald-Light, Oswald" font-weight="300"><tspan x="0" y="0">Other characteristics</tspan></text>
    <text id="Asymmetric_Symmetric_Midventricular_Apical" data-name="Asymmetric
Symmetric
Midventricular
Apical" transform="translate(425 2529)" fill="#0a4a79" font-size="22" font-family="Oswald-Light, Oswald" font-weight="300"><tspan x="0" y="0">Asymmetric</tspan><tspan x="0" y="32">Symmetric</tspan><tspan x="0" y="64">Midventricular</tspan><tspan x="0" y="96">Apical</tspan></text>
    <text id="Focal_Intramyocardial_junction" data-name="Focal
Intramyocardial junction" transform="translate(425 2756)" fill="#0a4a79" font-size="22" font-family="Oswald-Light, Oswald" font-weight="300"><tspan x="0" y="0">Focal</tspan><tspan x="0" y="32">Intramyocardial junction</tspan></text>
    <text id="SAM_Accessory_papillary_muscles_Apical_aneurysms" data-name="SAM
Accessory papillary 
muscles
Apical aneurysms" transform="translate(425 3126)" fill="#0a4a79" font-size="22" font-family="Oswald-Light, Oswald" font-weight="300"><tspan x="0" y="0">SAM</tspan><tspan x="0" y="32">Accessory papillary </tspan><tspan x="0" y="64">muscles</tspan><tspan x="0" y="96">Apical aneurysms</tspan></text>
    <text id="Symmetric" transform="translate(628 2529)" fill="#0a4a79" font-size="22" font-family="Oswald-Light, Oswald" font-weight="300"><tspan x="0" y="0">Symmetric</tspan></text>
    <text id="Subendocardial_Frosted_glass_Valves_Atria_Heterogeneous_pattern" data-name="Subendocardial
Frosted glass
Valves
Atria
Heterogeneous pattern" transform="translate(628 2756)" fill="#0a4a79" font-size="22" font-family="Oswald-Light, Oswald" font-weight="300"><tspan x="0" y="0">Subendocardial</tspan><tspan x="0" y="32">Frosted glass</tspan><tspan x="0" y="64">Valves</tspan><tspan x="0" y="96">Atria</tspan><tspan x="0" y="128">Heterogeneous pattern</tspan></text>
    <text id="IAS_hypertrophy_RV_hypertrophy_Valves_leaflet_thickening_Pericardial_effusion" data-name="IAS hypertrophy
RV hypertrophy
Valves leaflet thickening
Pericardial effusion" transform="translate(628 3126)" fill="#0a4a79" font-size="22" font-family="Oswald-Light, Oswald" font-weight="300"><tspan x="0" y="0">IAS hypertrophy</tspan><tspan x="0" y="32">RV hypertrophy</tspan><tspan x="0" y="64">Valves leaflet thickening</tspan><tspan x="0" y="96">Pericardial effusion</tspan></text>
    <text id="Symmetric-2" data-name="Symmetric" transform="translate(831 2529)" fill="#0a4a79" font-size="22" font-family="Oswald-Light, Oswald" font-weight="300"><tspan x="0" y="0">Symmetric</tspan></text>
    <text id="Inconstant_Intramyocardial_Inferolateral_wall" data-name="Inconstant
Intramyocardial
Inferolateral wall" transform="translate(831 2756)" fill="#0a4a79" font-size="22" font-family="Oswald-Light, Oswald" font-weight="300"><tspan x="0" y="0">Inconstant</tspan><tspan x="0" y="32">Intramyocardial</tspan><tspan x="0" y="64">Inferolateral wall</tspan></text>
    <text id="Papillary_muscle_hypertrophy16" data-name="Papillary muscle 
hypertrophy16" transform="translate(831 3126)" fill="#0a4a79" font-size="22" font-family="Oswald-Light, Oswald" font-weight="300"><tspan x="0" y="0">Papillary muscle </tspan><tspan x="0" y="32">hypertrophy</tspan><tspan y="32" font-size="12.833" baseline-shift="7.332599794233149">16</tspan></text>
    <text id="Symmetric-3" data-name="Symmetric" transform="translate(1034 2529)" fill="#0a4a79" font-size="22" font-family="Oswald-Light, Oswald" font-weight="300"><tspan x="0" y="0">Symmetric</tspan></text>
    <text id="Rare" transform="translate(1034 2756)" fill="#0a4a79" font-size="22" font-family="Oswald-Light, Oswald" font-weight="300"><tspan x="0" y="0">Rare</tspan></text>
    <text id="Diastolic_wall_thickness_to_volume_ratio_0.15_Normal_LVM_after_deconditioning" data-name="Diastolic wall thickness to volume ratio &lt;0.15
Normal LVM after deconditioning" transform="translate(1034 3100)" fill="#0a4a79" font-size="22" font-family="Oswald-Light, Oswald" font-weight="300"><tspan x="0" y="26">Diastolic wall thickness </tspan><tspan x="0" y="58">to volume ratio &lt;0.15</tspan><tspan x="0" y="90">Normal LVM after </tspan><tspan x="0" y="122">deconditioning</tspan></text>
  </g>
</svg>
