<svg xmlns="http://www.w3.org/2000/svg" width="1258" height="203" viewBox="0 0 1258 203">
  <g id="Group_5694" data-name="Group 5694" transform="translate(-72 -4741)">
    <g id="Rectangle_964" data-name="Rectangle 964" transform="translate(72 4804)" fill="#b0d9c1" stroke="#5bc3af" stroke-width="1">
      <rect width="100" height="140" stroke="none"/>
      <rect x="0.5" y="0.5" width="99" height="139" fill="none"/>
    </g>
    <g id="Rectangle_1086" data-name="Rectangle 1086" transform="translate(172 4804)" fill="#fff" stroke="#5bc3af" stroke-width="1">
      <rect width="137" height="140" stroke="none"/>
      <rect x="0.5" y="0.5" width="136" height="139" fill="none"/>
    </g>
    <g id="Rectangle_1087" data-name="Rectangle 1087" transform="translate(308 4804)" fill="#fff" stroke="#5bc3af" stroke-width="1">
      <rect width="80" height="140" stroke="none"/>
      <rect x="0.5" y="0.5" width="79" height="139" fill="none"/>
    </g>
    <g id="Rectangle_1088" data-name="Rectangle 1088" transform="translate(387 4804)" fill="#fff" stroke="#5bc3af" stroke-width="1">
      <rect width="92" height="140" stroke="none"/>
      <rect x="0.5" y="0.5" width="91" height="139" fill="none"/>
    </g>
    <g id="Rectangle_1089" data-name="Rectangle 1089" transform="translate(478 4804)" fill="#fff" stroke="#5bc3af" stroke-width="1">
      <rect width="100" height="140" stroke="none"/>
      <rect x="0.5" y="0.5" width="99" height="139" fill="none"/>
    </g>
    <g id="Rectangle_1090" data-name="Rectangle 1090" transform="translate(577 4804)" fill="#fff" stroke="#5bc3af" stroke-width="1">
      <rect width="110" height="140" stroke="none"/>
      <rect x="0.5" y="0.5" width="109" height="139" fill="none"/>
    </g>
    <g id="Rectangle_1091" data-name="Rectangle 1091" transform="translate(686 4804)" fill="#fff" stroke="#5bc3af" stroke-width="1">
      <rect width="80" height="140" stroke="none"/>
      <rect x="0.5" y="0.5" width="79" height="139" fill="none"/>
    </g>
    <g id="Rectangle_1092" data-name="Rectangle 1092" transform="translate(765 4804)" fill="#fff" stroke="#5bc3af" stroke-width="1">
      <rect width="92" height="140" stroke="none"/>
      <rect x="0.5" y="0.5" width="91" height="139" fill="none"/>
    </g>
    <g id="Rectangle_1093" data-name="Rectangle 1093" transform="translate(856 4804)" fill="#fff" stroke="#5bc3af" stroke-width="1">
      <rect width="92" height="140" stroke="none"/>
      <rect x="0.5" y="0.5" width="91" height="139" fill="none"/>
    </g>
    <g id="Rectangle_1094" data-name="Rectangle 1094" transform="translate(938 4804)" fill="#fff" stroke="#5bc3af" stroke-width="1">
      <rect width="109" height="140" stroke="none"/>
      <rect x="0.5" y="0.5" width="108" height="139" fill="none"/>
    </g>
    <g id="Rectangle_1095" data-name="Rectangle 1095" transform="translate(1046 4804)" fill="#fff" stroke="#5bc3af" stroke-width="1">
      <rect width="92" height="140" stroke="none"/>
      <rect x="0.5" y="0.5" width="91" height="139" fill="none"/>
    </g>
    <g id="Rectangle_1096" data-name="Rectangle 1096" transform="translate(1137 4804)" fill="#fff" stroke="#5bc3af" stroke-width="1">
      <rect width="110" height="140" stroke="none"/>
      <rect x="0.5" y="0.5" width="109" height="139" fill="none"/>
    </g>
    <g id="Rectangle_1097" data-name="Rectangle 1097" transform="translate(1246 4804)" fill="#fff" stroke="#5bc3af" stroke-width="1">
      <rect width="84" height="140" stroke="none"/>
      <rect x="0.5" y="0.5" width="83" height="139" fill="none"/>
    </g>
    <text id="Alertes_cardiaques" data-name="Alertes cardiaques" transform="translate(88 4817)" fill="#0a4a79" font-size="15" font-family="Oswald-Bold, Oswald" font-weight="700"><tspan x="0" y="18">Alertes </tspan><tspan x="0" y="38">cardiaques</tspan></text>
    <text id="Antécédents_familiaux_d_HVG_en_particulier_en_l_absence_de_preuve_de_transmission_d_un_homme_à_un_autre" data-name="Antécédents familiaux d’HVG, en particulier en l’absence de preuve de transmission d’un homme à un autre" transform="translate(185 4810)" fill="#0a4a79" font-size="15" font-family="Oswald-Light, Oswald" font-weight="300"><tspan x="0" y="18">Antécédents </tspan><tspan x="0" y="38">familiaux d’HVG, en </tspan><tspan x="0" y="58">particulier en </tspan><tspan x="0" y="78">l’absence de preuve </tspan><tspan x="0" y="98">de transmission d’un </tspan><tspan x="0" y="118">homme à un autre</tspan></text>
    <text id="Intervalle_court_PQ_" data-name="Intervalle 
court PQ†" transform="translate(324 4829)" fill="#0a4a79" font-size="15" font-family="Oswald-Light, Oswald" font-weight="300"><tspan x="0" y="0">Intervalle </tspan><tspan x="0" y="20">court PQ</tspan><tspan y="20" font-size="8.75" baseline-shift="4.999500156940817">†</tspan></text>
    <text id="Bradycardie" transform="translate(403 4831)" fill="#0a4a79" font-size="15" font-family="Oswald-Light, Oswald" font-weight="300"><tspan x="0" y="0">Bradycardie</tspan></text>
    <text id="Incompétence_chronotrope" data-name="Incompétence 
chronotrope" transform="translate(494 4829)" fill="#0a4a79" font-size="15" font-family="Oswald-Light, Oswald" font-weight="300"><tspan x="0" y="0">Incompétence </tspan><tspan x="0" y="20">chronotrope</tspan></text>
    <text id="Blocs_auriculo-_ventriculaires_" data-name="Blocs auriculo-
ventriculaires†" transform="translate(593 4829)" fill="#0a4a79" font-size="15" font-family="Oswald-Light, Oswald" font-weight="300"><tspan x="0" y="0">Blocs auriculo-</tspan><tspan x="0" y="20">ventriculaires</tspan><tspan y="20" font-size="8.75" baseline-shift="4.999500156940817">†</tspan></text>
    <text id="HVG_avec_fonction_systolique_normale" data-name="HVG avec fonction systolique normale" transform="translate(702 4810)" fill="#0a4a79" font-size="15" font-family="Oswald-Light, Oswald" font-weight="300"><tspan x="0" y="18">HVG avec </tspan><tspan x="0" y="38">fonction </tspan><tspan x="0" y="58">systolique </tspan><tspan x="0" y="78">normale</tspan></text>
    <text id="Souche_longitudinale_globale_réduite" data-name="Souche longitudinale globale réduite" transform="translate(781 4810)" fill="#0a4a79" font-size="15" font-family="Oswald-Light, Oswald" font-weight="300"><tspan x="0" y="18">Souche </tspan><tspan x="0" y="38">longitudinale </tspan><tspan x="0" y="58">globale </tspan><tspan x="0" y="78">réduite</tspan></text>
    <text id="Dilatation_de_la_racine_aortique_légère_à_modérée" data-name="Dilatation de la racine aortique légère à modérée" transform="translate(872 4810)" fill="#0a4a79" font-size="15" font-family="Oswald-Light, Oswald" font-weight="300"><tspan x="0" y="18">Dilatation </tspan><tspan x="0" y="38">de la racine </tspan><tspan x="0" y="58">aortique </tspan><tspan x="0" y="78">légère à </tspan><tspan x="0" y="98">modérée</tspan></text>
    <text id="Épaississement_des_valves_mitrales_et_aortiques_avec_régurgitation_légère_à_modérée" data-name="Épaississement des valves mitrales et aortiques avec régurgitation légère à modérée" transform="translate(948 4810)" fill="#0a4a79" font-size="15" font-family="Oswald-Light, Oswald" font-weight="300"><tspan x="0" y="18">Épaississement </tspan><tspan x="0" y="38">des valves </tspan><tspan x="0" y="58">mitrales et </tspan><tspan x="0" y="78">aortiques avec </tspan><tspan x="0" y="98">régurgitation </tspan><tspan x="0" y="118">légère à modérée</tspan></text>
    <text id="Hypertrophie_des_muscles_papillaires_" data-name="Hypertrophie des muscles papillaires
" transform="translate(1062 4810)" fill="#0a4a79" font-size="15" font-family="Oswald-Light, Oswald" font-weight="300"><tspan x="0" y="18">Hypertrophie </tspan><tspan x="0" y="38">des muscles </tspan><tspan x="0" y="58">papillaires</tspan><tspan x="0" y="78"></tspan></text>
    <text id="Rehaussement_postéro-latéral_tardif_de_la_couche_intermédiaire_au_gadolinium" data-name="Rehaussement postéro-latéral tardif de la couche intermédiaire au gadolinium" transform="translate(1153 4810)" fill="#0a4a79" font-size="15" font-family="Oswald-Light, Oswald" font-weight="300"><tspan x="0" y="18">Rehaussement </tspan><tspan x="0" y="38">postéro-latéral </tspan><tspan x="0" y="58">tardif de la </tspan><tspan x="0" y="78">couche </tspan><tspan x="0" y="98">intermédiaire </tspan><tspan x="0" y="118">au gadolinium</tspan></text>
    <text id="T1_native_faible" data-name="T1 native faible" transform="translate(1262 4810)" fill="#0a4a79" font-size="15" font-family="Oswald-Light, Oswald" font-weight="300"><tspan x="0" y="18">T1 native </tspan><tspan x="0" y="38">faible</tspan></text>
    <g id="Rectangle_964-2" data-name="Rectangle 964" transform="translate(72 4741)" fill="#b0d9c1" stroke="#5bc3af" stroke-width="1">
      <rect width="100" height="64" stroke="none"/>
      <rect x="0.5" y="0.5" width="99" height="63" fill="none"/>
    </g>
    <g id="Rectangle_1082" data-name="Rectangle 1082" transform="translate(172 4741)" fill="rgba(91,195,175,0.12)" stroke="#5bc3af" stroke-width="1">
      <rect width="137" height="64" stroke="none"/>
      <rect x="0.5" y="0.5" width="136" height="63" fill="none"/>
    </g>
    <g id="Rectangle_1083" data-name="Rectangle 1083" transform="translate(308 4741)" fill="rgba(91,195,175,0.12)" stroke="#5bc3af" stroke-width="1">
      <rect width="379" height="64" stroke="none"/>
      <rect x="0.5" y="0.5" width="378" height="63" fill="none"/>
    </g>
    <g id="Rectangle_1084" data-name="Rectangle 1084" transform="translate(686 4741)" fill="rgba(91,195,175,0.12)" stroke="#5bc3af" stroke-width="1">
      <rect width="361" height="64" stroke="none"/>
      <rect x="0.5" y="0.5" width="360" height="63" fill="none"/>
    </g>
    <g id="Rectangle_1085" data-name="Rectangle 1085" transform="translate(1046 4741)" fill="rgba(91,195,175,0.12)" stroke="#5bc3af" stroke-width="1">
      <rect width="284" height="64" stroke="none"/>
      <rect x="0.5" y="0.5" width="283" height="63" fill="none"/>
    </g>
    <text id="Outil_de_diagnostic" data-name="Outil de diagnostic" transform="translate(88 4751)" fill="#0a4a79" font-size="16" font-family="Oswald-Bold, Oswald" font-weight="700"><tspan x="0" y="19">Outil de </tspan><tspan x="0" y="41">diagnostic</tspan></text>
    <text id="Historique" transform="translate(185 4770)" fill="#0a4a79" font-size="16" font-family="Oswald-Light, Oswald" font-weight="300"><tspan x="0" y="0">Historique</tspan></text>
    <text id="Électrocardiogramme" transform="translate(324 4770)" fill="#0a4a79" font-size="16" font-family="Oswald-Light, Oswald" font-weight="300"><tspan x="0" y="0">Électrocardiogramme</tspan></text>
    <text id="Échocardiographie_bidimensionnelle" data-name="Échocardiographie bidimensionnelle" transform="translate(702 4770)" fill="#0a4a79" font-size="16" font-family="Oswald-Light, Oswald" font-weight="300"><tspan x="0" y="0">Échocardiographie bidimensionnelle</tspan></text>
    <text id="Résonance_magnétique_cardiaque" data-name="Résonance magnétique cardiaque" transform="translate(1062 4770)" fill="#0a4a79" font-size="16" font-family="Oswald-Light, Oswald" font-weight="300"><tspan x="0" y="0">Résonance magnétique cardiaque</tspan></text>
  </g>
</svg>
